<svg viewBox="-121 0 512 512" xmlns="http://www.w3.org/2000/svg"><path d="m144.824219 439.464844c33.582031-29.105469 64.886719-49.425782 64.886719-82.429688 0-26.582031-19.703126-47.40625-44.855469-47.40625-11.371094 0-21.757813 4.480469-29.957031 12.546875-8.152344-8.128906-18.386719-12.546875-29.753907-12.546875-25.152343 0-44.855469 20.824219-44.855469 47.40625 0 32.164063 28.410157 50.816406 64.886719 82.429688l9.824219 8.511718zm-54.535157-82.429688c0-8.648437 5.101563-17.40625 14.855469-17.40625 7.417969 0 12.015625 7.1875 14.566407 13.21875l3.878906 9.144532 22.742187-.011719 3.804688-9.308594c1.992187-4.871094 6.550781-13.042969 14.71875-13.042969 9.753906 0 14.855469 8.757813 14.855469 17.40625 0 16.113282-22.976563 32.929688-44.710938 51.347656-27.453125-23.265624-44.710938-36.847656-44.710938-51.347656zm0 0"/><path d="m270 377v-242c0-74.4375-60.5625-135-135-135s-135 60.5625-135 135v242c0 74.4375 60.5625 135 135 135s135-60.5625 135-135zm-150-152c0-8.269531 6.730469-15 15-15s15 6.730469 15 15-6.730469 15-15 15-15-6.730469-15-15zm59.992188-.28125c-.152344-24.683594-20.273438-44.71875-44.992188-44.71875s-44.839844 20.035156-44.992188 44.71875c-11.371093-8.667969-20.335937-20.605469-25.363281-34.742188l-3.542969-9.976562h-16.101562c-8.269531 0-15-6.730469-15-15s6.730469-15 15-15h16.101562l3.542969-9.976562c10.636719-29.921876 38.910157-50.023438 70.355469-50.023438s59.71875 20.101562 70.355469 50.023438l3.542969 9.976562h16.101562c8.269531 0 15 6.730469 15 15s-6.730469 15-15 15h-16.101562l-3.542969 9.976562c-5.027344 14.136719-13.992188 26.074219-25.363281 34.742188zm-44.992188-194.71875c53.605469 0 97.949219 40.378906 104.230469 92.316406-3.078125-1.027344-6.296875-1.742187-9.628907-2.082031-17.207031-36.421875-54.007812-60.234375-94.601562-60.234375s-77.394531 23.8125-94.601562 60.234375c-3.332032.339844-6.550782 1.050781-9.628907 2.082031 6.28125-51.9375 50.625-92.316406 104.230469-92.316406zm-105 347v-169.574219c3.308594 1.171875 6.789062 1.972657 10.398438 2.339844 17.207031 36.421875 54.007812 60.234375 94.601562 60.234375s77.394531-23.8125 94.601562-60.234375c3.609376-.367187 7.089844-1.167969 10.398438-2.339844v169.574219c0 57.898438-47.101562 105-105 105s-105-47.101562-105-105zm0 0"/><path d="m90 135h30v30h-30zm0 0"/><path d="m150 135h30v30h-30zm0 0"/></svg>