<svg viewBox="-121 0 512 512" xmlns="http://www.w3.org/2000/svg"><path d="m135 0c-74.398438 0-135 61.597656-135 136v241c0 74.398438 60.601562 135 135 135s135-60.601562 135-135v-241c0-74.402344-60.601562-136-135-136zm0 0" fill="#ff6c6c"/><path d="m270 136v241c0 74.398438-60.601562 135-135 135v-512c74.398438 0 135 61.597656 135 136zm0 0" fill="#ff4949"/><path d="m229.5 121.300781c-17.097656-36.601562-54-60.300781-94.5-60.300781s-77.402344 23.699219-94.5 60.300781c-22.800781 2.097657-40.5 21.296875-40.5 44.699219 0 23.398438 17.699219 42.597656 40.5 44.699219 17.097656 36.601562 54 60.300781 94.5 60.300781s77.402344-23.699219 94.5-60.300781c22.800781-2.101563 40.5-21.300781 40.5-44.699219 0-23.402344-17.699219-42.601562-40.5-44.699219zm0 0" fill="#ffcebf"/><path d="m270 166c0 23.398438-17.699219 42.597656-40.5 44.699219-17.097656 36.601562-54 60.300781-94.5 60.300781v-210c40.5 0 77.402344 23.699219 94.5 60.300781 22.800781 2.097657 40.5 21.296875 40.5 44.699219zm0 0" fill="#ffbfab"/><path d="m90 136h30v30h-30zm0 0" fill="#68544f"/><path d="m150 136h30v30h-30zm0 0" fill="#53433f"/><path d="m135 181c-24.902344 0-45 20.097656-45 45 0 24.898438 20.097656 45 45 45s45-20.101562 45-45c0-24.902344-20.097656-45-45-45zm0 0" fill="#ff8597"/><path d="m165 309.5c-11.101562 0-21.898438 4.5-30 12.597656-8.101562-8.101562-18.898438-12.597656-30-12.597656-25.199219 0-45 21-45 47.398438 0 33.300781 33.601562 56.101562 75 91.203124 41.699219-35.402343 75-57.003906 75-91.203124 0-26.398438-19.800781-47.398438-45-47.398438zm0 0" fill="#ececf1"/><path d="m135 448.101562v-126c8.101562-8.101562 18.898438-12.601562 30-12.601562 25.199219 0 45 21 45 47.398438 0 34.199218-33.300781 55.800781-75 91.203124zm0 0" fill="#e2e2e7"/><path d="m180 226c0 24.898438-20.097656 45-45 45v-90c24.902344 0 45 20.097656 45 45zm0 0" fill="#ff6c6c"/></svg>