<svg height="512" viewBox="0 0 512 512" width="512" xmlns="http://www.w3.org/2000/svg"><g id="Flat"><path d="m374.4 43.2a48 48 0 0 1 9.6 28.8v37.088a26.342 26.342 0 0 0 7.716 18.628 28.284 28.284 0 0 1 8.284 20 28.284 28.284 0 0 1 -28.284 28.284h-103.432a28.284 28.284 0 0 1 -28.284-28.284 28.284 28.284 0 0 1 8.284-20 26.342 26.342 0 0 0 7.716-18.628v-37.088a48 48 0 0 1 9.6-28.8 47.992 47.992 0 0 1 38.4-19.2h32a47.992 47.992 0 0 1 38.4 19.2z" fill="#bfbfbd"/><path d="m368 120a48 48 0 0 1 -48 48 48.526 48.526 0 0 1 -10.86-1.23 48.045 48.045 0 0 1 -37.14-46.77v-40a51.766 51.766 0 0 0 46.31-28.62l1.69-3.38c.72 0 1.44.03 2.15.09a27.109 27.109 0 0 1 24.96 26.96 27.711 27.711 0 0 1 -.37 4.51l-1.67 10.04a26.1 26.1 0 0 0 17.63 29.11 41.53 41.53 0 0 0 5.3 1.29z" fill="#fec9a3"/><path d="m368 120a48 48 0 0 1 -48 48 48.526 48.526 0 0 1 -10.86-1.23 71.76 71.76 0 0 0 22.01-51.81v-32a71.566 71.566 0 0 0 -9-34.87 27.109 27.109 0 0 1 24.96 26.96 27.711 27.711 0 0 1 -.37 4.51l-1.67 10.04a26.1 26.1 0 0 0 17.63 29.11 41.53 41.53 0 0 0 5.3 1.29z" fill="#fec093"/><path d="m392 208v136h-136v-136a32 32 0 0 1 32-32h72a31.981 31.981 0 0 1 32 32z" fill="#d3669a"/><path d="m392 208v136h-136v-65.52a341.163 341.163 0 0 0 117.37-99.56 32.01 32.01 0 0 1 18.63 29.08z" fill="#cc6395"/><path d="m240 72v32a47.979 47.979 0 0 1 -47 47.98c-.33.02-.67.02-1 .02a48 48 0 0 1 -48-48v-32a48 48 0 0 1 96 0z" fill="#fec9a3"/><path d="m240 72v32a47.979 47.979 0 0 1 -47 47.98 71.556 71.556 0 0 0 12.15-40.02v-32a71.775 71.775 0 0 0 -21.09-50.91q-1.86-1.86-3.86-3.59a48.018 48.018 0 0 1 59.8 46.54z" fill="#fec093"/><g fill="#7a432a"><path d="m296 96h16v16h-16z"/><path d="m328 96h16v16h-16z"/><path d="m168 88h16v16h-16z"/><path d="m200 88h16v16h-16z"/></g><path d="m144 104 14.472 14.472a18.7 18.7 0 0 0 21.58 3.5 18.7 18.7 0 0 1 8.361-1.972h7.174a18.7 18.7 0 0 1 8.361 1.974 18.7 18.7 0 0 0 21.58-3.5l14.472-14.474v40a32 32 0 0 1 -32 32h-32a32 32 0 0 1 -32-32z" fill="#92563a"/><path d="m144 73.114a17.114 17.114 0 0 1 17.114-17.114h2.846a17.113 17.113 0 0 1 7.653 1.807l8.774 4.386a17.113 17.113 0 0 0 7.653 1.807h8.588a17.1 17.1 0 0 0 6.492-1.279l13.28-5.442a17.1 17.1 0 0 1 6.486-1.279 17.114 17.114 0 0 1 17.114 17.114v-14.692a34.423 34.423 0 0 0 -15.328-28.641 34.428 34.428 0 0 0 -19.094-5.781h-27.156a34.428 34.428 0 0 0 -19.094 5.781 34.423 34.423 0 0 0 -15.328 28.641z" fill="#92563a"/><path d="m256 208v136h-136v-136a32 32 0 0 1 32-32h72a31.958 31.958 0 0 1 32 32z" fill="#f35244"/><path d="m256 208v136h-136v-86.2a342.532 342.532 0 0 0 115.17-79.8 32.027 32.027 0 0 1 20.83 30z" fill="#e64d40"/><path d="m120 344h136v144h-136z" fill="#f35244"/><path d="m152 304v136h-88v-112h-40v-24a40 40 0 0 1 40-40h48a40.03 40.03 0 0 1 40 40z" fill="#348fd9"/><path d="m152 304v136h-88v-95.09c26.14-17.14 51.16-40.48 73.99-71.3a39.849 39.849 0 0 1 14.01 30.39z" fill="#3086cd"/><path d="m64 440h88v48h-88z" fill="#7a432a"/><path d="m144 408h-88a32 32 0 0 1 -32-32v-48h48v40h48l24-8z" fill="#fec9a3"/><path d="m480 488h-128v-208h96l3.25 26.02 12.75 101.98z" fill="#7eb457"/><path d="m480 488h-128v-98.21c35.96-16.38 70.18-43.14 99.25-83.77l12.75 101.98z" fill="#79ad54"/><path d="m352 280a0 0 0 0 1 0 0v104a0 0 0 0 1 0 0h-40a0 0 0 0 1 0 0v-64a40 40 0 0 1 40-40z" fill="#feb784"/><path d="m448 280v88h-64v40h72a32 32 0 0 0 32-32v-56a40 40 0 0 0 -40-40z" fill="#feb784"/><path d="m152 208v24a48 48 0 0 1 -48 48c-.73 0-1.46-.02-2.18-.05a48 48 0 0 1 -45.82-47.95v-24a48 48 0 0 1 48-48q2.115 0 4.17.18a48.007 48.007 0 0 1 43.83 47.82z" fill="#fec9a3"/><path d="m152 208v24a48 48 0 0 1 -48 48c-.73 0-1.46-.02-2.18-.05a71.713 71.713 0 0 0 18.33-47.99v-32a71.629 71.629 0 0 0 -11.98-39.78 48.007 48.007 0 0 1 43.83 47.82z" fill="#fec093"/><path d="m80 216h16v16h-16z" fill="#7a432a"/><path d="m112 216h16v16h-16z" fill="#7a432a"/><path d="m56 208v-16a24 24 0 0 1 24-24z" fill="#804a32"/><path d="m152 184v24l-32-24h-40a24 24 0 0 1 -24-24v-8h64a32 32 0 0 1 32 32z" fill="#92563a"/><path d="m456 184h-24v32h24v32a32 32 0 0 0 32 32v-64a32 32 0 0 0 -32-32z" fill="#f7a116"/><path d="m456 224v24a47.994 47.994 0 0 1 -42.93 47.73 47.278 47.278 0 0 1 -5.07.27 48 48 0 0 1 -48-48v-24a48 48 0 0 1 48-48c1.17 0 2.33.04 3.48.13a48 48 0 0 1 44.52 47.87z" fill="#fec9a3"/><path d="m456 224v24a47.994 47.994 0 0 1 -42.93 47.73 71.664 71.664 0 0 0 14.08-42.77v-32a71.642 71.642 0 0 0 -15.67-44.83 48 48 0 0 1 44.52 47.87z" fill="#fec093"/><path d="m384 232h16v16h-16z" fill="#7a432a"/><path d="m416 232h16v16h-16z" fill="#7a432a"/><path d="m360 232s40 0 64-32c0 0 8 24 32 32v-16a48 48 0 0 0 -48-48 48 48 0 0 0 -48 48z" fill="#ffb531"/><path d="m360 368h32v88h-32z" fill="#fec9a3"/><path d="m40 256h8a16 16 0 0 1 16 16v16a0 0 0 0 1 0 0h-40a0 0 0 0 1 0 0v-16a16 16 0 0 1 16-16z" fill="#fec9a3"/><path d="m272 488h-144l13.16-65.82 2.84-14.18v-40a32 32 0 0 1 32-32h48a31.9 31.9 0 0 1 22.63 9.37c.54.54 1.05 1.09 1.55 1.67a31.867 31.867 0 0 1 7.82 20.96v40z" fill="#f59898"/><path d="m272 488h-144l13.16-65.82c38-13.93 74.77-37.85 107.02-75.14a31.867 31.867 0 0 1 7.82 20.96v40z" fill="#ed9191"/><path d="m152 456h32l-8-80h-32z" fill="#fec9a3"/><path d="m248 456h-32l8-80h32z" fill="#feb784"/><path d="m120 328v-48a32 32 0 0 1 32-32h24v32h-24v16a32 32 0 0 1 -32 32z" fill="#f57707"/><path d="m248 272v16a48 48 0 0 1 -96 0v-16a48 48 0 0 1 48-48 48 48 0 0 1 48 48z" fill="#fec9a3"/><path d="m248 272v16a48.026 48.026 0 0 1 -32 45.27 71.681 71.681 0 0 0 7.15-31.31v-32a71.7 71.7 0 0 0 -16.16-45.45 48.009 48.009 0 0 1 41.01 47.49z" fill="#fec093"/><path d="m176 280h16v16h-16z" fill="#7a432a"/><path d="m208 280h16v16h-16z" fill="#7a432a"/><path d="m248 272h-7.015a42.246 42.246 0 0 1 -40.985-32 42.246 42.246 0 0 1 -40.985 32h-7.015v-8a48 48 0 0 1 48-48 48 48 0 0 1 48 48z" fill="#f98500"/><path d="m368 248v16a48 48 0 0 1 -44.61 47.88q-1.68.12-3.39.12a48 48 0 0 1 -48-48v-16a48 48 0 0 1 48-48 46.162 46.162 0 0 1 4.87.25 48 48 0 0 1 43.13 47.75z" fill="#fec9a3"/><path d="m368 248v16a48 48 0 0 1 -44.61 47.88 71.6 71.6 0 0 0 12.76-40.92v-32a71.676 71.676 0 0 0 -11.28-38.71 48 48 0 0 1 43.13 47.75z" fill="#fec093"/><path d="m344 208s-8 32 24 40a48 48 0 0 0 -48-48 48 48 0 0 0 -47.322 39.991c6.387-.124 56.354-2.056 71.322-31.991z" fill="#92563a"/><path d="m296 256h16v16h-16z" fill="#7a432a"/><path d="m328 256h16v16h-16z" fill="#7a432a"/><path d="m392 344v24h-32v48h-80v-48h-32v-24a32 32 0 0 1 32-32h80a31.95 31.95 0 0 1 32 32z" fill="#348fd9"/><path d="m392 344v24h-32v48h-80v-32.87c32.93-14.45 64.48-36.6 92.44-68.63a32.033 32.033 0 0 1 19.56 29.5z" fill="#3086cd"/><path d="m280 416h80v72h-80z" fill="#7a432a"/><path d="m312 440h16v48h-16z" fill="#5c2e1a"/><path d="m248 368h32v88h-32z" fill="#fec9a3"/><rect fill="#2a71ad" height="32" rx="8" width="16" x="272" y="344"/><rect fill="#2a71ad" height="32" rx="8" width="16" x="352" y="344"/></g></svg>