<svg height="512pt" viewBox="0 -44 512 511" width="512pt" xmlns="http://www.w3.org/2000/svg"><path d="m372.152344 95.933594c0-24.414063-19.402344-44.285156-43.628906-45.066406v-11.652344h59.207031c24.910156 0 45.105469 20.191406 45.105469 45.101562v85.628906c0 2.640626-2.144532 4.78125-4.785157 4.78125-30.875 0-55.902343-25.027343-55.902343-55.898437v-22.894531zm0 0" fill="#ffa300"/><path d="m346.761719 68.816406h4.292969c6.8125 0 12.332031-5.523437 12.332031-12.332031v-17.332031c0-6.808594-5.523438-12.332032-12.332031-12.332032h-4.292969c-6.8125 0-12.332031 5.523438-12.332031 12.332032v17.332031c0 6.808594 5.519531 12.332031 12.332031 12.332031zm0 0" fill="#dd5298"/><path d="m387.730469 39.214844h-27.578125c24.910156 0 45.101562 20.191406 45.101562 45.101562v85.550782c6.964844 3.113281 14.675782 4.859374 22.796875 4.859374 2.640625 0 4.785157-2.140624 4.785157-4.785156v-85.625c0-24.910156-20.195313-45.101562-45.105469-45.101562zm0 0" fill="#ff8b00"/><path d="m350.742188 26.820312h-3.671876c-1.078124 0-2.117187.152344-3.117187.40625 5.472656 1.390626 9.523437 6.332032 9.523437 12.238282v16.710937c0 5.902344-4.050781 10.847657-9.523437 12.238281 1 .253907 2.039063.402344 3.117187.402344h3.671876c6.984374 0 12.644531-5.660156 12.644531-12.640625v-16.710937c0-6.984375-5.660157-12.644532-12.644531-12.644532zm0 0" fill="#c93f84"/><path d="m141.140625 95.933594c0-24.414063 19.398437-44.285156 43.625-45.066406v-11.652344h-59.207031c-24.910156 0-45.105469 20.191406-45.105469 45.101562v85.628906c0 2.640626 2.144531 4.78125 4.785156 4.78125 30.875 0 55.902344-25.027343 55.902344-55.898437zm0 0" fill="#ffa300"/><path d="m157.1875 50.867188c-24.226562.78125-43.628906 20.652343-43.628906 45.066406v22.894531c0 22.75-13.597656 42.3125-33.105469 51.039063v.078124c0 2.640626 2.144531 4.78125 4.785156 4.78125 30.875 0 55.902344-25.027343 55.902344-55.898437v-22.894531c0-24.414063 19.398437-44.285156 43.625-45.066406zm0 0" fill="#ff8b00"/><path d="m166.527344 68.816406h-4.292969c-6.808594 0-12.332031-5.523437-12.332031-12.332031v-17.332031c0-6.808594 5.523437-12.332032 12.332031-12.332032h4.292969c6.8125 0 12.332031 5.523438 12.332031 12.332032v17.332031c0 6.808594-5.519531 12.332031-12.332031 12.332031zm0 0" fill="#dd5298"/><path d="m166.21875 26.820312h-3.671875c-1.078125 0-2.121094.152344-3.117187.40625 5.46875 1.390626 9.523437 6.332032 9.523437 12.238282v16.710937c0 5.902344-4.054687 10.847657-9.523437 12.238281.996093.253907 2.039062.402344 3.117187.402344h3.671875c6.980469 0 12.640625-5.660156 12.640625-12.640625v-16.710937c0-6.984375-5.660156-12.644532-12.640625-12.644532zm0 0" fill="#c93f84"/><path d="m357.371094 102.972656h-1.910156v-15.394531c0-48.09375-38.988282-87.078125-87.078126-87.078125h-23.210937c-48.09375 0-87.078125 38.984375-87.078125 87.078125v15.394531h-4.289062c-10.289063 0-18.628907 8.34375-18.628907 18.632813v8.589843c0 14.296876 11.589844 25.886719 25.886719 25.886719 1.132812 0 2.242188-.117187 3.320312-.3125 12.878907 31.996094 44.183594 54.589844 80.789063 54.589844h23.210937c36.570313 0 67.855469-22.558594 80.757813-54.507813.949219.136719 1.914063.230469 2.90625.230469 14.113281 0 25.554687-11.441406 25.554687-25.554687v-7.320313c.003907-11.175781-9.054687-20.234375-20.230468-20.234375zm0 0" fill="#ffc5b2"/><path d="m357.371094 102.972656h-1.910156v-15.394531c0-48.09375-38.988282-87.078125-87.078126-87.078125h-23.210937c-.402344 0-.792969.023438-1.191406.03125 47.539062.640625 85.882812 39.355469 85.882812 87.046875v35.703125c0 47.691406-38.34375 86.40625-85.882812 87.046875.398437.007813.789062.03125 1.191406.03125h23.210937c36.570313 0 67.855469-22.558594 80.757813-54.507813.949219.136719 1.914063.230469 2.90625.230469 14.113281 0 25.554687-11.441406 25.554687-25.554687v-7.320313c.003907-11.175781-9.054687-20.234375-20.230468-20.234375zm0 0" fill="#ffae92"/><path d="m228.179688 64.082031h57.195312c28.742188 0 54.226562 13.933594 70.085938 35.410157v-11.914063c0-48.09375-38.984376-87.078125-87.078126-87.078125h-23.210937c-48.09375 0-87.078125 38.984375-87.078125 87.078125v11.914063c15.859375-21.476563 41.339844-35.410157 70.085938-35.410157zm0 0" fill="#ffa300"/><path d="m268.382812.5h-23.210937c-3.203125 0-6.363281.183594-9.476563.523438 37.066407 4.011718 67.132813 31.277343 75.355469 66.910156 17.984375 5.542968 33.480469 16.761718 44.410157 31.558594v-11.914063c0-48.09375-38.988282-87.078125-87.078126-87.078125zm0 0" fill="#ff8b00"/><path d="m231.183594 114.765625c0 6.316406-5.121094 11.4375-11.441406 11.4375-6.316407 0-11.4375-5.121094-11.4375-11.4375 0-6.320313 5.121093-11.441406 11.4375-11.441406 6.320312 0 11.441406 5.121093 11.441406 11.441406zm0 0" fill="#bc693f"/><path d="m305.246094 114.765625c0 6.316406-5.117188 11.4375-11.4375 11.4375-6.316406 0-11.4375-5.121094-11.4375-11.4375 0-6.320313 5.121094-11.441406 11.4375-11.441406 6.320312 0 11.4375 5.121093 11.4375 11.441406zm0 0" fill="#bc693f"/><path d="m256.777344 180.976562c19.851562 0 36.195312-15.011718 38.304687-34.300781.246094-2.253906-1.519531-4.234375-3.789062-4.234375h-69.03125c-2.269531 0-4.035157 1.980469-3.789063 4.234375 2.109375 19.289063 18.453125 34.300781 38.304688 34.300781zm0 0" fill="#fff"/><path d="m491.765625 316.664062h-1.910156v-15.394531c0-48.09375-38.984375-87.078125-87.078125-87.078125h-23.210938c-48.089844 0-87.078125 38.984375-87.078125 87.078125v15.394531h-4.285156c-10.292969 0-18.632813 8.34375-18.632813 18.632813v8.589844c0 14.296875 11.589844 25.886719 25.886719 25.886719 1.136719 0 2.242188-.117188 3.320313-.3125 12.878906 31.992187 44.1875 54.589843 80.789062 54.589843h23.210938c36.574218 0 67.859375-22.558593 80.757812-54.507812.953125.136719 1.917969.230469 2.90625.230469 14.117188 0 25.558594-11.441407 25.558594-25.554688v-7.320312c0-11.175782-9.058594-20.234376-20.234375-20.234376zm0 0" fill="#ffc5b2"/><path d="m491.765625 316.664062h-1.910156v-15.394531c0-48.09375-38.984375-87.078125-87.078125-87.078125h-23.210938c-.398437 0-.792968.023438-1.191406.03125 47.539062.640625 85.886719 39.355469 85.886719 87.046875v35.703125c0 47.691406-38.347657 86.40625-85.886719 87.046875.398438.007813.792969.03125 1.191406.03125h23.210938c36.574218 0 67.859375-22.558593 80.757812-54.507812.953125.136719 1.917969.230469 2.90625.230469 14.117188 0 25.558594-11.441407 25.558594-25.554688v-7.320312c0-11.175782-9.058594-20.234376-20.234375-20.234376zm0 0" fill="#ffae92"/><path d="m362.574219 277.773438h57.195312c28.746094 0 54.226563 13.933593 70.085938 35.410156v-11.914063c0-48.09375-38.984375-87.078125-87.078125-87.078125h-23.210938c-48.089844 0-87.078125 38.984375-87.078125 87.078125v11.914063c15.859375-21.476563 41.34375-35.410156 70.085938-35.410156zm0 0" fill="#ffc50d"/><path d="m365.578125 328.453125c0 6.320313-5.121094 11.441406-11.4375 11.441406s-11.4375-5.121093-11.4375-11.441406c0-6.316406 5.121094-11.4375 11.4375-11.4375s11.4375 5.121094 11.4375 11.4375zm0 0" fill="#257edf"/><path d="m439.644531 328.453125c0 6.320313-5.121093 11.441406-11.4375 11.441406-6.316406 0-11.4375-5.121093-11.4375-11.441406 0-6.316406 5.121094-11.4375 11.4375-11.4375 6.316407 0 11.4375 5.121094 11.4375 11.4375zm0 0" fill="#257edf"/><path d="m391.171875 394.667969c19.851563 0 36.195313-15.011719 38.304687-34.300781.246094-2.257813-1.519531-4.234376-3.789062-4.234376h-69.03125c-2.265625 0-4.035156 1.976563-3.789062 4.234376 2.109374 19.289062 18.453124 34.300781 38.304687 34.300781zm0 0" fill="#fff"/><path d="m222.195312 316.664062h-1.910156v-15.394531c0-48.09375-38.984375-87.078125-87.078125-87.078125h-23.210937c-48.09375 0-87.078125 38.984375-87.078125 87.078125v15.394531h-4.285157c-10.292968 0-18.632812 8.34375-18.632812 18.632813v8.589844c0 14.296875 11.589844 25.886719 25.886719 25.886719 1.136719 0 2.242187-.117188 3.320312-.3125 12.878907 31.992187 44.1875 54.589843 80.789063 54.589843h23.210937c36.570313 0 67.859375-22.558593 80.757813-54.507812.949218.136719 1.917968.230469 2.90625.230469 14.113281 0 25.558594-11.441407 25.558594-25.554688v-7.320312c0-11.175782-9.058594-20.234376-20.234376-20.234376zm0 0" fill="#bc663b"/><path d="m222.195312 316.664062h-1.910156v-15.394531c0-48.09375-38.984375-87.078125-87.078125-87.078125h-23.210937c-.398438 0-.792969.023438-1.191406.03125 47.539062.640625 85.886718 39.355469 85.886718 87.046875v35.703125c0 47.691406-38.347656 86.40625-85.886718 87.046875.398437.007813.792968.03125 1.191406.03125h23.210937c36.570313 0 67.859375-22.558593 80.757813-54.507812.949218.136719 1.917968.230469 2.90625.230469 14.113281 0 25.558594-11.441407 25.558594-25.554688v-7.320312c0-11.175782-9.058594-20.234376-20.234376-20.234376zm0 0" fill="#ad5731"/><path d="m93.003906 277.773438h57.195313c28.746093 0 54.226562 13.933593 70.085937 35.410156v-11.914063c0-48.09375-38.984375-87.078125-87.078125-87.078125h-23.210937c-48.089844 0-87.078125 38.984375-87.078125 87.078125v11.914063c15.859375-21.476563 41.34375-35.410156 70.085937-35.410156zm0 0" fill="#824a25"/><path d="m402.777344 214.191406h-23.210938c-2.921875 0-5.808594.148438-8.660156.429688 37.636719 3.71875 68.207031 31.398437 76.296875 67.574218 17.234375 5.71875 32.082031 16.675782 42.652344 30.988282v-11.914063c0-48.09375-38.984375-87.078125-87.078125-87.078125zm0 0" fill="#ffa300"/><g fill="#703e23"><path d="m133.207031 214.191406h-23.210937c-2.921875 0-5.8125.148438-8.660156.429688 37.636718 3.71875 68.207031 31.398437 76.296874 67.574218 17.234376 5.71875 32.082032 16.675782 42.652344 30.988282v-11.914063c0-48.09375-38.984375-87.078125-87.078125-87.078125zm0 0"/><path d="m96.007812 328.453125c0 6.320313-5.121093 11.441406-11.4375 11.441406-6.316406 0-11.4375-5.121093-11.4375-11.441406 0-6.316406 5.121094-11.4375 11.4375-11.4375 6.316407 0 11.4375 5.121094 11.4375 11.4375zm0 0"/><path d="m170.074219 328.453125c0 6.320313-5.121094 11.441406-11.4375 11.441406-6.320313 0-11.441407-5.121093-11.441407-11.441406 0-6.316406 5.121094-11.4375 11.441407-11.4375 6.316406 0 11.4375 5.121094 11.4375 11.4375zm0 0"/></g><path d="m121.601562 394.667969c19.851563 0 36.195313-15.011719 38.304688-34.300781.246094-2.257813-1.519531-4.234376-3.789062-4.234376h-69.03125c-2.269532 0-4.035157 1.976563-3.789063 4.234376 2.109375 19.289062 18.453125 34.300781 38.304687 34.300781zm0 0" fill="#fff"/></svg>